<?xml version="1.0" encoding="utf-8" standalone="no"?>
<!DOCTYPE svg PUBLIC "-//W3C//DTD SVG 1.1//EN"
  "http://www.w3.org/Graphics/SVG/1.1/DTD/svg11.dtd">
<svg xmlns:xlink="http://www.w3.org/1999/xlink" width="432pt" height="288pt" viewBox="0 0 432 288" xmlns="http://www.w3.org/2000/svg" version="1.1">
 <metadata>
  <rdf:RDF xmlns:dc="http://purl.org/dc/elements/1.1/" xmlns:cc="http://creativecommons.org/ns#" xmlns:rdf="http://www.w3.org/1999/02/22-rdf-syntax-ns#">
   <cc:Work>
    <dc:type rdf:resource="http://purl.org/dc/dcmitype/StillImage"/>
    <dc:date>2022-06-14T10:14:33.659698</dc:date>
    <dc:format>image/svg+xml</dc:format>
    <dc:creator>
     <cc:Agent>
      <dc:title>Matplotlib v3.5.0, https://matplotlib.org/</dc:title>
     </cc:Agent>
    </dc:creator>
   </cc:Work>
  </rdf:RDF>
 </metadata>
 <defs>
  <style type="text/css">*{stroke-linejoin: round; stroke-linecap: butt}</style>
 </defs>
 <g id="figure_1">
  <g id="patch_1">
   <path d="M 0 288 
L 432 288 
L 432 0 
L 0 0 
L 0 288 
z
" style="fill: none"/>
  </g>
  <g id="axes_1">
   <g id="patch_2">
    <path d="M 54 252 
L 388.8 252 
L 388.8 34.56 
L 54 34.56 
z
" style="fill: #ffffff"/>
   </g>
   <g id="matplotlib.axis_1">
    <g id="xtick_1">
     <g id="line2d_1">
      <defs>
       <path id="m299190a9dc" d="M 0 0 
L 0 3.5 
" style="stroke: #000000; stroke-width: 0.8"/>
      </defs>
      <g>
       <use xlink:href="#m299190a9dc" x="69.218182" y="252" style="stroke: #000000; stroke-width: 0.8"/>
      </g>
     </g>
     <g id="text_1">
      <!-- 0 -->
      <g transform="translate(66.218182 267.578125)scale(0.12 -0.12)">
       <defs>
        <path id="SimSun-30" d="M 1600 4225 
Q 1250 4225 1012 3687 
Q 775 3150 775 2250 
Q 775 1300 1012 775 
Q 1250 250 1600 250 
Q 1975 250 2187 775 
Q 2400 1300 2400 2250 
Q 2400 3150 2200 3687 
Q 2000 4225 1600 4225 
z
M 1600 50 
Q 1050 50 675 625 
Q 300 1200 300 2250 
Q 300 3225 662 3825 
Q 1025 4425 1600 4425 
Q 2150 4425 2512 3850 
Q 2875 3275 2875 2250 
Q 2875 1225 2512 637 
Q 2150 50 1600 50 
z
" transform="scale(0.015625)"/>
       </defs>
       <use xlink:href="#SimSun-30"/>
      </g>
     </g>
    </g>
    <g id="xtick_2">
     <g id="line2d_2">
      <g>
       <use xlink:href="#m299190a9dc" x="127.74965" y="252" style="stroke: #000000; stroke-width: 0.8"/>
      </g>
     </g>
     <g id="text_2">
      <!-- 5 -->
      <g transform="translate(124.74965 267.578125)scale(0.12 -0.12)">
       <defs>
        <path id="SimSun-35" d="M 1725 2850 
Q 2200 2850 2500 2487 
Q 2800 2125 2800 1525 
Q 2800 850 2487 450 
Q 2175 50 1525 50 
Q 1075 50 725 312 
Q 375 575 375 950 
Q 375 1100 462 1212 
Q 550 1325 700 1325 
Q 850 1325 900 1225 
Q 950 1125 950 1050 
Q 950 900 875 825 
Q 800 725 800 625 
Q 800 425 1037 325 
Q 1275 225 1550 225 
Q 1950 225 2162 550 
Q 2375 875 2375 1475 
Q 2375 1975 2187 2287 
Q 2000 2600 1625 2600 
Q 1350 2600 1150 2500 
Q 950 2400 775 2075 
L 550 2100 
L 675 4375 
L 2725 4375 
L 2650 4000 
L 850 4000 
L 750 2350 
Q 1000 2700 1237 2775 
Q 1475 2850 1725 2850 
z
" transform="scale(0.015625)"/>
       </defs>
       <use xlink:href="#SimSun-35"/>
      </g>
     </g>
    </g>
    <g id="xtick_3">
     <g id="line2d_3">
      <g>
       <use xlink:href="#m299190a9dc" x="186.281119" y="252" style="stroke: #000000; stroke-width: 0.8"/>
      </g>
     </g>
     <g id="text_3">
      <!-- 10 -->
      <g transform="translate(180.281119 267.578125)scale(0.12 -0.12)">
       <defs>
        <path id="SimSun-31" d="M 1825 4450 
L 1825 650 
Q 1825 450 1950 350 
Q 2075 250 2300 250 
L 2550 250 
L 2550 100 
L 725 100 
L 725 250 
L 950 250 
Q 1200 250 1312 350 
Q 1425 450 1425 650 
L 1425 3675 
Q 1425 3775 1362 3837 
Q 1300 3900 1175 3900 
L 725 3900 
L 725 4050 
L 950 4050 
Q 1250 4050 1437 4150 
Q 1625 4250 1725 4450 
L 1825 4450 
z
" transform="scale(0.015625)"/>
       </defs>
       <use xlink:href="#SimSun-31"/>
       <use xlink:href="#SimSun-30" x="50"/>
      </g>
     </g>
    </g>
    <g id="xtick_4">
     <g id="line2d_4">
      <g>
       <use xlink:href="#m299190a9dc" x="244.812587" y="252" style="stroke: #000000; stroke-width: 0.8"/>
      </g>
     </g>
     <g id="text_4">
      <!-- 15 -->
      <g transform="translate(238.812587 267.578125)scale(0.12 -0.12)">
       <use xlink:href="#SimSun-31"/>
       <use xlink:href="#SimSun-35" x="50"/>
      </g>
     </g>
    </g>
    <g id="xtick_5">
     <g id="line2d_5">
      <g>
       <use xlink:href="#m299190a9dc" x="303.344056" y="252" style="stroke: #000000; stroke-width: 0.8"/>
      </g>
     </g>
     <g id="text_5">
      <!-- 20 -->
      <g transform="translate(297.344056 267.578125)scale(0.12 -0.12)">
       <defs>
        <path id="SimSun-32" d="M 2325 3325 
Q 2325 3775 2125 4012 
Q 1925 4250 1525 4250 
Q 1225 4250 1012 4087 
Q 800 3925 800 3675 
Q 800 3525 900 3425 
Q 975 3325 975 3225 
Q 975 3100 912 3037 
Q 850 2975 725 2975 
Q 575 2975 487 3062 
Q 400 3150 400 3350 
Q 400 3875 775 4150 
Q 1150 4425 1575 4425 
Q 2175 4425 2462 4125 
Q 2750 3825 2750 3375 
Q 2750 3075 2612 2775 
Q 2475 2475 2175 2200 
Q 1450 1500 1062 1062 
Q 675 625 600 475 
L 2075 475 
Q 2300 475 2450 650 
Q 2600 825 2650 1175 
L 2800 1175 
L 2650 100 
L 325 100 
L 325 425 
Q 450 650 737 1000 
Q 1025 1350 1500 1825 
Q 1925 2250 2125 2625 
Q 2325 3000 2325 3325 
z
" transform="scale(0.015625)"/>
       </defs>
       <use xlink:href="#SimSun-32"/>
       <use xlink:href="#SimSun-30" x="50"/>
      </g>
     </g>
    </g>
    <g id="xtick_6">
     <g id="line2d_6">
      <g>
       <use xlink:href="#m299190a9dc" x="361.875524" y="252" style="stroke: #000000; stroke-width: 0.8"/>
      </g>
     </g>
     <g id="text_6">
      <!-- 25 -->
      <g transform="translate(355.875524 267.578125)scale(0.12 -0.12)">
       <use xlink:href="#SimSun-32"/>
       <use xlink:href="#SimSun-35" x="50"/>
      </g>
     </g>
    </g>
    <g id="text_7">
     <!-- 训练轮次 -->
     <g transform="translate(197.4 282.640625)scale(0.12 -0.12)">
      <defs>
       <path id="SimSun-8bad" d="M 3925 4575 
L 4475 4350 
L 4275 4200 
L 4275 1050 
Q 4275 825 4300 275 
L 3925 75 
Q 3950 1050 3950 2362 
Q 3950 3675 3925 4575 
z
M 5150 5025 
L 5700 4800 
L 5500 4625 
L 5500 725 
Q 5500 225 5525 -350 
L 5150 -550 
Q 5175 -75 5175 500 
L 5175 4125 
Q 5175 4400 5150 5025 
z
M 950 4875 
L 1000 4925 
Q 1500 4675 1662 4525 
Q 1825 4375 1800 4200 
Q 1775 4025 1700 3950 
Q 1625 3875 1575 3875 
Q 1500 3875 1425 4100 
Q 1325 4400 950 4875 
z
M 1625 700 
L 2400 1525 
L 2450 1475 
Q 1750 525 1525 0 
L 1200 400 
Q 1325 525 1300 725 
L 1300 2850 
L 1025 2850 
Q 825 2850 550 2775 
L 325 3000 
L 1275 3000 
L 1450 3250 
L 1825 2925 
L 1625 2775 
L 1625 700 
z
M 2775 5000 
L 3350 4750 
L 3150 4550 
Q 3150 3125 3137 2300 
Q 3125 1475 2812 750 
Q 2500 25 1575 -625 
L 1500 -575 
Q 2300 175 2550 900 
Q 2800 1625 2800 2650 
Q 2800 3675 2775 5000 
z
" transform="scale(0.015625)"/>
       <path id="SimSun-7ec3" d="M 700 3175 
L 1775 3250 
Q 1950 3525 2125 3925 
L 2600 3550 
L 2375 3475 
Q 1575 2500 775 1650 
Q 1425 1725 2350 1900 
L 2375 1800 
Q 875 1400 650 1125 
L 325 1650 
Q 550 1725 800 1987 
Q 1050 2250 1675 3100 
Q 1375 3075 1087 2987 
Q 800 2900 625 2725 
L 325 3225 
Q 550 3275 887 3900 
Q 1225 4525 1425 5225 
L 1975 4900 
L 1700 4750 
Q 1225 3975 700 3175 
z
M 300 375 
Q 1250 625 2425 1000 
L 2450 900 
Q 1550 500 750 75 
L 600 -100 
L 300 375 
z
M 2700 2250 
Q 2900 2550 3100 3075 
Q 2975 3075 2700 3000 
L 2475 3225 
L 3150 3225 
L 3500 4125 
L 3125 4125 
Q 2800 4125 2525 4050 
L 2300 4275 
L 3550 4275 
Q 3775 5000 3800 5250 
L 4325 4950 
L 4100 4825 
Q 4025 4650 3875 4275 
L 5125 4275 
L 5450 4600 
L 5900 4125 
L 3825 4125 
L 3475 3225 
L 4250 3225 
L 4425 3450 
L 4825 3150 
L 4625 3000 
L 4625 2100 
L 5300 2100 
L 5600 2400 
L 6050 1950 
L 4625 1950 
L 4625 150 
Q 4650 -450 4025 -600 
Q 4025 -225 3300 -50 
L 3300 50 
Q 3900 0 4100 0 
Q 4300 0 4300 275 
L 4300 1950 
L 2975 1950 
L 2800 1775 
L 2475 2125 
L 2700 2250 
z
M 3450 1025 
Q 2650 0 1900 -500 
L 1825 -425 
Q 2275 0 2600 450 
Q 2925 900 3175 1475 
L 3675 1100 
L 3450 1025 
z
M 4900 1375 
Q 5775 825 5937 637 
Q 6100 450 6100 275 
Q 6100 125 6025 -37 
Q 5950 -200 5900 -200 
Q 5825 -200 5700 125 
Q 5525 575 4850 1300 
L 4900 1375 
z
M 3425 3075 
Q 3225 2625 2950 2100 
L 4300 2100 
L 4300 3075 
L 3425 3075 
z
" transform="scale(0.015625)"/>
       <path id="SimSun-8f6e" d="M 1625 2500 
Q 1625 3125 1600 3550 
L 2175 3300 
L 1950 3125 
L 1950 2500 
L 2150 2500 
L 2450 2800 
L 2875 2350 
L 1950 2350 
L 1950 1450 
L 2975 1775 
L 3000 1675 
L 1950 1225 
Q 1950 275 1975 -425 
L 1600 -600 
Q 1625 425 1625 1100 
Q 650 700 550 500 
L 250 1000 
Q 675 1075 1625 1350 
L 1625 2350 
L 950 2350 
L 775 2175 
L 475 2500 
L 675 2650 
L 1125 3900 
L 950 3900 
Q 750 3900 475 3825 
L 250 4050 
L 1175 4050 
Q 1325 4525 1500 5225 
L 2050 4850 
L 1750 4700 
L 1525 4050 
L 2275 4050 
L 2600 4375 
L 3050 3900 
L 1475 3900 
L 975 2500 
L 1625 2500 
z
M 4550 4900 
L 4325 4725 
Q 4925 3350 6125 3050 
L 6125 2975 
Q 5775 2925 5625 2675 
Q 4650 3400 4250 4600 
Q 3675 3300 2725 2600 
L 2675 2675 
Q 3100 3100 3450 3737 
Q 3800 4375 4050 5225 
L 4550 4900 
z
M 3350 1575 
Q 3350 2350 3325 2875 
L 3925 2575 
L 3675 2400 
L 3675 1300 
Q 4550 1875 5050 2550 
L 5450 2075 
L 5125 2025 
Q 4400 1525 3675 1175 
L 3675 375 
Q 3650 -150 4125 -100 
L 4975 -100 
Q 5225 -100 5250 325 
Q 5275 750 5275 1025 
L 5375 1025 
Q 5400 700 5437 375 
Q 5475 50 5750 -25 
Q 5600 -375 5125 -400 
L 3925 -400 
Q 3325 -400 3350 150 
L 3350 1575 
z
" transform="scale(0.015625)"/>
       <path id="SimSun-6b21" d="M 4875 2725 
L 5275 3600 
L 3225 3600 
Q 3025 3250 2800 2887 
Q 2575 2525 2075 2025 
L 2000 2100 
Q 2575 2825 2925 3750 
Q 3275 4675 3350 5225 
L 3950 4925 
Q 3750 4825 3650 4600 
Q 3550 4375 3275 3750 
L 5250 3750 
L 5525 4025 
L 5975 3550 
Q 5725 3500 5550 3350 
Q 5375 3200 4950 2675 
L 4875 2725 
z
M 4050 2900 
Q 3900 1225 3175 437 
Q 2450 -350 1450 -650 
L 1400 -575 
Q 2675 0 3175 912 
Q 3675 1825 3700 3400 
L 4275 3100 
L 4125 2975 
Q 4300 1700 4812 912 
Q 5325 125 6150 -175 
L 6125 -250 
Q 5750 -225 5575 -500 
Q 4950 -25 4537 825 
Q 4125 1675 4050 2900 
z
M 750 4950 
Q 1275 4675 1487 4450 
Q 1700 4225 1700 4075 
Q 1700 3925 1587 3775 
Q 1475 3625 1450 3625 
Q 1350 3625 1275 3950 
Q 1150 4400 700 4875 
L 750 4950 
z
M 425 1650 
Q 600 1625 750 1625 
Q 975 1625 1100 1725 
Q 1225 1825 2275 4300 
L 2375 4250 
Q 1400 1700 1350 1600 
Q 1300 1500 1300 1187 
Q 1300 875 1375 350 
Q 1450 -200 1212 -175 
Q 975 -150 925 -25 
Q 875 100 875 200 
Q 875 300 925 575 
Q 1000 975 975 1187 
Q 950 1400 425 1550 
L 425 1650 
z
" transform="scale(0.015625)"/>
      </defs>
      <use xlink:href="#SimSun-8bad"/>
      <use xlink:href="#SimSun-7ec3" x="100"/>
      <use xlink:href="#SimSun-8f6e" x="200"/>
      <use xlink:href="#SimSun-6b21" x="300"/>
     </g>
    </g>
   </g>
   <g id="matplotlib.axis_2">
    <g id="ytick_1">
     <g id="line2d_7">
      <defs>
       <path id="m6f2409eee7" d="M 0 0 
L -3.5 0 
" style="stroke: #000000; stroke-width: 0.8"/>
      </defs>
      <g>
       <use xlink:href="#m6f2409eee7" x="54" y="242.116364" style="stroke: #000000; stroke-width: 0.8"/>
      </g>
     </g>
     <g id="text_8">
      <!-- 0.0 -->
      <g transform="translate(29 246.405426)scale(0.12 -0.12)">
       <defs>
        <path id="SimSun-2e" d="M 800 25 
Q 650 25 537 125 
Q 425 225 425 400 
Q 425 575 537 675 
Q 650 775 800 775 
Q 950 775 1062 662 
Q 1175 550 1175 400 
Q 1175 225 1062 125 
Q 950 25 800 25 
z
" transform="scale(0.015625)"/>
       </defs>
       <use xlink:href="#SimSun-30"/>
       <use xlink:href="#SimSun-2e" x="50"/>
       <use xlink:href="#SimSun-30" x="100"/>
      </g>
     </g>
    </g>
    <g id="ytick_2">
     <g id="line2d_8">
      <g>
       <use xlink:href="#m6f2409eee7" x="54" y="201.487689" style="stroke: #000000; stroke-width: 0.8"/>
      </g>
     </g>
     <g id="text_9">
      <!-- 0.2 -->
      <g transform="translate(29 205.776751)scale(0.12 -0.12)">
       <use xlink:href="#SimSun-30"/>
       <use xlink:href="#SimSun-2e" x="50"/>
       <use xlink:href="#SimSun-32" x="100"/>
      </g>
     </g>
    </g>
    <g id="ytick_3">
     <g id="line2d_9">
      <g>
       <use xlink:href="#m6f2409eee7" x="54" y="160.859014" style="stroke: #000000; stroke-width: 0.8"/>
      </g>
     </g>
     <g id="text_10">
      <!-- 0.4 -->
      <g transform="translate(29 165.148076)scale(0.12 -0.12)">
       <defs>
        <path id="SimSun-34" d="M 2300 575 
Q 2300 400 2400 325 
Q 2500 250 2675 250 
L 2900 250 
L 2900 100 
L 1250 100 
L 1250 250 
L 1525 250 
Q 1725 250 1812 325 
Q 1900 400 1900 575 
L 1900 1400 
L 225 1400 
L 225 1525 
L 2050 4425 
L 2300 4425 
L 2300 1550 
L 2975 1550 
L 2975 1400 
L 2300 1400 
L 2300 575 
z
M 1875 3800 
L 450 1550 
L 1900 1550 
L 1900 3800 
L 1875 3800 
z
" transform="scale(0.015625)"/>
       </defs>
       <use xlink:href="#SimSun-30"/>
       <use xlink:href="#SimSun-2e" x="50"/>
       <use xlink:href="#SimSun-34" x="100"/>
      </g>
     </g>
    </g>
    <g id="ytick_4">
     <g id="line2d_10">
      <g>
       <use xlink:href="#m6f2409eee7" x="54" y="120.230339" style="stroke: #000000; stroke-width: 0.8"/>
      </g>
     </g>
     <g id="text_11">
      <!-- 0.6 -->
      <g transform="translate(29 124.519401)scale(0.12 -0.12)">
       <defs>
        <path id="SimSun-36" d="M 775 1800 
Q 775 1050 1037 637 
Q 1300 225 1675 225 
Q 2050 225 2250 500 
Q 2450 775 2450 1525 
Q 2450 2025 2237 2300 
Q 2025 2575 1725 2575 
Q 1450 2575 1212 2412 
Q 975 2250 775 1800 
z
M 1750 2825 
Q 2350 2825 2612 2425 
Q 2875 2025 2875 1525 
Q 2875 775 2512 412 
Q 2150 50 1675 50 
Q 1000 50 650 562 
Q 300 1075 300 2050 
Q 300 3200 725 3812 
Q 1150 4425 1875 4425 
Q 2225 4425 2437 4225 
Q 2650 4025 2650 3875 
Q 2650 3725 2587 3650 
Q 2525 3575 2375 3575 
Q 2250 3575 2187 3637 
Q 2125 3700 2125 3825 
Q 2125 3875 2150 3925 
Q 2150 3975 2150 4025 
Q 2150 4125 2075 4187 
Q 2000 4250 1800 4250 
Q 1375 4250 1075 3862 
Q 775 3475 775 2175 
Q 925 2500 1187 2662 
Q 1450 2825 1750 2825 
z
" transform="scale(0.015625)"/>
       </defs>
       <use xlink:href="#SimSun-30"/>
       <use xlink:href="#SimSun-2e" x="50"/>
       <use xlink:href="#SimSun-36" x="100"/>
      </g>
     </g>
    </g>
    <g id="ytick_5">
     <g id="line2d_11">
      <g>
       <use xlink:href="#m6f2409eee7" x="54" y="79.601664" style="stroke: #000000; stroke-width: 0.8"/>
      </g>
     </g>
     <g id="text_12">
      <!-- 0.8 -->
      <g transform="translate(29 83.890726)scale(0.12 -0.12)">
       <defs>
        <path id="SimSun-38" d="M 625 1125 
Q 625 725 887 475 
Q 1150 225 1550 225 
Q 2025 225 2237 475 
Q 2450 725 2450 1100 
Q 2450 1425 2150 1725 
Q 1850 2025 1250 2275 
Q 950 2075 787 1775 
Q 625 1475 625 1125 
z
M 2825 1175 
Q 2825 700 2475 375 
Q 2125 50 1550 50 
Q 1025 50 650 375 
Q 275 700 275 1125 
Q 275 1550 487 1850 
Q 700 2150 1100 2375 
Q 750 2550 562 2812 
Q 375 3075 375 3400 
Q 375 3825 700 4125 
Q 1025 4425 1600 4425 
Q 2125 4425 2450 4125 
Q 2775 3825 2775 3400 
Q 2775 3100 2587 2837 
Q 2400 2575 2000 2375 
Q 2425 2125 2625 1825 
Q 2825 1525 2825 1175 
z
M 2425 3375 
Q 2425 3725 2225 3987 
Q 2025 4250 1600 4250 
Q 1125 4250 925 4000 
Q 725 3750 725 3475 
Q 725 3200 1012 2937 
Q 1300 2675 1825 2475 
Q 2125 2625 2275 2850 
Q 2425 3075 2425 3375 
z
" transform="scale(0.015625)"/>
       </defs>
       <use xlink:href="#SimSun-30"/>
       <use xlink:href="#SimSun-2e" x="50"/>
       <use xlink:href="#SimSun-38" x="100"/>
      </g>
     </g>
    </g>
    <g id="ytick_6">
     <g id="line2d_12">
      <g>
       <use xlink:href="#m6f2409eee7" x="54" y="38.972989" style="stroke: #000000; stroke-width: 0.8"/>
      </g>
     </g>
     <g id="text_13">
      <!-- 1.0 -->
      <g transform="translate(29 43.262051)scale(0.12 -0.12)">
       <use xlink:href="#SimSun-31"/>
       <use xlink:href="#SimSun-2e" x="50"/>
       <use xlink:href="#SimSun-30" x="100"/>
      </g>
     </g>
    </g>
    <g id="text_14">
     <!-- $\mathrm{F1}$值 -->
     <g transform="translate(23.453125 155.64)rotate(-90)scale(0.12 -0.12)">
      <defs>
       <path id="STIXGeneral-Regular-46" d="M 3494 3322 
L 3334 3322 
Q 3264 3757 3094 3875 
Q 2925 3994 2349 3994 
L 1504 3994 
Q 1370 3994 1328 3946 
Q 1286 3898 1286 3744 
L 1286 2355 
L 2195 2355 
Q 2598 2355 2736 2470 
Q 2874 2586 2918 2963 
L 3066 2963 
L 3066 1472 
L 2918 1472 
Q 2880 1862 2745 1977 
Q 2611 2093 2195 2093 
L 1286 2093 
L 1286 717 
Q 1286 352 1392 246 
Q 1498 141 1869 122 
L 1869 0 
L 70 0 
L 70 122 
Q 435 147 534 259 
Q 634 371 634 787 
L 634 3526 
Q 634 3878 538 3984 
Q 442 4090 77 4115 
L 77 4237 
L 3462 4237 
L 3494 3322 
z
" transform="scale(0.015625)"/>
       <path id="STIXGeneral-Regular-31" d="M 2522 0 
L 755 0 
L 755 96 
Q 1107 115 1235 227 
Q 1363 339 1363 608 
L 1363 3482 
Q 1363 3795 1171 3795 
Q 1082 3795 883 3718 
L 710 3654 
L 710 3744 
L 1856 4326 
L 1914 4307 
L 1914 486 
Q 1914 275 2042 185 
Q 2170 96 2522 96 
L 2522 0 
z
" transform="scale(0.015625)"/>
       <path id="SimSun-503c" d="M 1525 650 
Q 1525 -225 1550 -525 
L 1175 -650 
Q 1200 250 1200 550 
L 1200 3025 
Q 750 2300 325 1850 
L 250 1900 
Q 725 2625 1100 3525 
Q 1475 4425 1675 5200 
L 2200 4875 
L 1950 4725 
Q 1550 3800 1425 3475 
L 1725 3300 
L 1525 3150 
L 1525 650 
z
M 2875 3225 
L 2875 2475 
L 4800 2475 
L 4800 3225 
L 2875 3225 
z
M 2875 2325 
L 2875 1575 
L 4800 1575 
L 4800 2325 
L 2875 2325 
z
M 2875 1425 
L 2875 675 
L 4800 675 
L 4800 1425 
L 2875 1425 
z
M 2875 525 
L 2875 -225 
L 4800 -225 
L 4800 525 
L 2875 525 
z
M 3550 4250 
Q 3575 4825 3550 5225 
L 4125 4950 
L 3925 4800 
L 3900 4250 
L 5025 4250 
L 5350 4575 
L 5825 4100 
L 3900 4100 
L 3875 3375 
L 4750 3375 
L 4975 3625 
L 5350 3300 
L 5125 3150 
L 5125 -225 
L 5350 -225 
L 5675 100 
L 6150 -375 
L 2450 -375 
Q 2125 -375 1850 -450 
L 1625 -225 
L 2550 -225 
L 2550 2550 
Q 2550 2850 2525 3575 
L 2875 3375 
L 3525 3375 
L 3550 4100 
L 2800 4100 
Q 2475 4100 2200 4025 
L 1975 4250 
L 3550 4250 
z
" transform="scale(0.015625)"/>
      </defs>
      <use xlink:href="#STIXGeneral-Regular-46" transform="translate(0 0.359375)"/>
      <use xlink:href="#STIXGeneral-Regular-31" transform="translate(55.599991 0.359375)"/>
      <use xlink:href="#SimSun-503c" transform="translate(105.599976 0.359375)"/>
     </g>
    </g>
   </g>
   <g id="line2d_13">
    <path d="M 69.218182 242.116364 
L 80.924476 66.606463 
L 92.630769 57.922931 
L 104.337063 56.323313 
L 116.043357 50.581182 
L 127.74965 53.926092 
L 139.455944 48.54519 
L 151.162238 55.520196 
L 162.868531 49.702393 
L 174.574825 48.123591 
L 186.281119 50.300686 
L 197.987413 51.364359 
L 209.693706 51.907211 
L 221.4 46.953622 
L 233.106294 50.079593 
L 244.812587 48.337754 
L 256.518881 46.360021 
L 268.225175 46.659495 
L 279.931469 48.680725 
L 291.637762 46.306685 
L 303.344056 45.977933 
L 315.05035 45.853068 
L 326.756643 45.853068 
L 338.462937 46.743501 
L 350.169231 44.443636 
L 361.875524 44.818841 
L 373.581818 45.549573 
" clip-path="url(#p644676f96e)" style="fill: none; stroke: #1f77b4; stroke-width: 1.5; stroke-linecap: square"/>
   </g>
   <g id="line2d_14">
    <path d="M 69.218182 242.116364 
L 80.924476 118.014229 
L 92.630769 100.888224 
L 104.337063 85.270781 
L 116.043357 80.496788 
L 127.74965 76.200621 
L 139.455944 71.178646 
L 151.162238 65.838818 
L 162.868531 70.699343 
L 174.574825 68.337316 
L 186.281119 66.93698 
L 197.987413 69.543108 
L 209.693706 70.767233 
L 221.4 69.247056 
L 233.106294 64.124073 
L 244.812587 65.634082 
L 256.518881 65.138997 
L 268.225175 64.091557 
L 279.931469 64.049578 
L 291.637762 64.307267 
L 303.344056 66.2181 
L 315.05035 63.256795 
L 326.756643 62.777048 
L 338.462937 64.453573 
L 350.169231 63.723791 
L 361.875524 62.885866 
L 373.581818 63.36896 
" clip-path="url(#p644676f96e)" style="fill: none; stroke: #ff7f0e; stroke-width: 1.5; stroke-linecap: square"/>
   </g>
   <g id="line2d_15">
    <path d="M 69.218182 242.116364 
L 80.924476 135.790257 
L 92.630769 99.090854 
L 104.337063 92.298125 
L 116.043357 82.503712 
L 127.74965 72.953335 
L 139.455944 73.877349 
L 151.162238 62.984307 
L 162.868531 72.042841 
L 174.574825 64.365911 
L 186.281119 63.933895 
L 197.987413 63.19393 
L 209.693706 64.871746 
L 221.4 73.389842 
L 233.106294 65.886721 
L 244.812587 66.341451 
L 256.518881 60.219177 
L 268.225175 59.732166 
L 279.931469 62.826946 
L 291.637762 63.65396 
L 303.344056 61.045658 
L 315.05035 60.418067 
L 326.756643 60.500707 
L 338.462937 62.826946 
L 350.169231 62.849185 
L 361.875524 57.797085 
L 373.581818 59.749016 
" clip-path="url(#p644676f96e)" style="fill: none; stroke: #2ca02c; stroke-width: 1.5; stroke-linecap: square"/>
   </g>
   <g id="line2d_16">
    <path d="M 69.218182 242.116364 
L 80.924476 242.116364 
L 92.630769 242.116364 
L 104.337063 96.269838 
L 116.043357 85.141938 
L 127.74965 72.042841 
L 139.455944 66.674358 
L 151.162238 65.469951 
L 162.868531 70.573069 
L 174.574825 66.674358 
L 186.281119 69.228385 
L 197.987413 61.544475 
L 209.693706 55.901603 
L 221.4 78.039023 
L 233.106294 56.63763 
L 244.812587 58.319977 
L 256.518881 66.674358 
L 268.225175 53.145783 
L 279.931469 61.544475 
L 291.637762 63.746571 
L 303.344056 60.583986 
L 315.05035 48.206779 
L 326.756643 56.63763 
L 338.462937 48.206779 
L 350.169231 52.515881 
L 361.875524 52.515881 
L 373.581818 57.440568 
" clip-path="url(#p644676f96e)" style="fill: none; stroke: #d62728; stroke-width: 1.5; stroke-linecap: square"/>
   </g>
   <g id="patch_3">
    <path d="M 54 252 
L 54 34.56 
" style="fill: none; stroke: #000000; stroke-width: 0.8; stroke-linejoin: miter; stroke-linecap: square"/>
   </g>
   <g id="patch_4">
    <path d="M 388.8 252 
L 388.8 34.56 
" style="fill: none; stroke: #000000; stroke-width: 0.8; stroke-linejoin: miter; stroke-linecap: square"/>
   </g>
   <g id="patch_5">
    <path d="M 54 252 
L 388.8 252 
" style="fill: none; stroke: #000000; stroke-width: 0.8; stroke-linejoin: miter; stroke-linecap: square"/>
   </g>
   <g id="patch_6">
    <path d="M 54 34.56 
L 388.8 34.56 
" style="fill: none; stroke: #000000; stroke-width: 0.8; stroke-linejoin: miter; stroke-linecap: square"/>
   </g>
   <g id="text_15">
    <!-- 汉语$\mathrm{RoBERTa-BiLSTM-CRF}$训练曲线 -->
    <g transform="translate(94.176 28.56)scale(0.144 -0.144)">
     <defs>
      <path id="SimSun-6c49" d="M 2900 4375 
Q 3175 3150 3362 2600 
Q 3550 2050 3850 1575 
Q 4475 2600 4850 4375 
L 2900 4375 
z
M 5200 4250 
Q 4800 2400 4050 1275 
Q 5000 175 6075 -25 
L 6075 -125 
Q 5675 -150 5525 -425 
Q 4625 50 3875 1025 
Q 2850 -175 1425 -575 
L 1400 -475 
Q 2725 50 3675 1300 
Q 3325 1900 3137 2525 
Q 2950 3150 2775 4375 
L 2650 4375 
L 2425 4325 
L 2225 4525 
L 4800 4525 
L 5025 4800 
L 5450 4425 
L 5200 4250 
z
M 2400 4050 
Q 1425 1400 1337 1087 
Q 1250 775 1262 325 
Q 1275 -125 1300 -300 
Q 1300 -400 1175 -400 
Q 1075 -400 937 -350 
Q 800 -300 800 -125 
Q 800 0 875 250 
Q 925 450 925 625 
Q 925 825 812 937 
Q 700 1050 325 1125 
L 325 1225 
Q 475 1200 650 1200 
Q 1000 1200 1137 1412 
Q 1275 1625 2300 4075 
L 2400 4050 
z
M 325 3625 
Q 1200 3175 1200 2887 
Q 1200 2600 1062 2500 
Q 925 2400 825 2750 
Q 700 3075 275 3550 
L 325 3625 
z
M 925 4950 
Q 1625 4600 1687 4425 
Q 1750 4250 1750 4175 
Q 1750 4050 1662 3950 
Q 1575 3850 1525 3850 
Q 1450 3850 1375 4100 
Q 1250 4425 875 4875 
L 925 4950 
z
" transform="scale(0.015625)"/>
      <path id="SimSun-8bed" d="M 3050 1450 
L 3050 75 
L 5000 75 
L 5000 1450 
L 3050 1450 
z
M 2175 4700 
L 4925 4700 
L 5275 5000 
L 5700 4550 
L 3750 4550 
L 3625 3725 
L 4650 3725 
L 4825 3975 
L 5200 3725 
L 5025 3525 
L 5025 2500 
L 5400 2500 
L 5725 2800 
L 6125 2350 
L 2675 2350 
Q 2400 2350 2125 2275 
L 1900 2500 
L 3075 2500 
L 3250 3575 
L 2925 3575 
Q 2875 3575 2600 3525 
L 2375 3725 
L 3275 3725 
L 3375 4550 
L 2950 4550 
Q 2675 4550 2400 4475 
L 2175 4700 
z
M 3600 3575 
L 3425 2500 
L 4675 2500 
L 4675 3575 
L 3600 3575 
z
M 5350 1350 
Q 5350 225 5375 -325 
L 5000 -475 
L 5000 -75 
L 3050 -75 
L 3050 -400 
L 2675 -550 
Q 2700 -150 2700 575 
Q 2700 1300 2675 1825 
L 3050 1600 
L 4975 1600 
L 5150 1850 
L 5525 1525 
L 5350 1350 
z
M 775 4925 
L 850 4975 
Q 1275 4700 1412 4562 
Q 1550 4425 1575 4250 
Q 1600 4075 1500 3962 
Q 1400 3850 1350 3850 
Q 1250 3850 1200 4075 
Q 1125 4425 775 4925 
z
M 1025 275 
Q 1175 375 1175 625 
L 1175 2825 
L 1000 2825 
Q 825 2825 475 2750 
L 250 2975 
L 1125 2975 
L 1300 3250 
L 1700 2950 
L 1500 2775 
L 1500 550 
L 2300 1175 
L 2375 1100 
Q 1975 650 1762 400 
Q 1550 150 1375 -100 
L 1025 275 
z
" transform="scale(0.015625)"/>
      <path id="STIXGeneral-Regular-52" d="M 4224 0 
L 3187 0 
L 1664 1971 
L 1306 1958 
L 1306 717 
Q 1306 352 1405 249 
Q 1504 147 1875 122 
L 1875 0 
L 109 0 
L 109 122 
Q 474 154 563 262 
Q 653 371 653 794 
L 653 3526 
Q 653 3885 563 3987 
Q 474 4090 109 4115 
L 109 4237 
L 1850 4237 
Q 2726 4237 3187 3859 
Q 3501 3603 3501 3091 
Q 3501 2221 2342 2042 
L 3622 422 
Q 3757 256 3878 198 
Q 4000 141 4224 122 
L 4224 0 
z
M 1306 3731 
L 1306 2195 
Q 1766 2202 1990 2246 
Q 2214 2291 2438 2413 
Q 2803 2618 2803 3142 
Q 2803 4000 1632 4000 
Q 1459 4000 1382 3945 
Q 1306 3891 1306 3731 
z
" transform="scale(0.015625)"/>
      <path id="STIXGeneral-Regular-6f" d="M 3008 1478 
Q 3008 806 2608 371 
Q 2208 -64 1568 -64 
Q 979 -64 582 368 
Q 186 800 186 1459 
Q 186 2125 582 2534 
Q 979 2944 1626 2944 
Q 2221 2944 2614 2537 
Q 3008 2131 3008 1478 
z
M 2432 1306 
Q 2432 2035 2112 2445 
Q 1856 2765 1504 2765 
Q 1171 2765 966 2493 
Q 762 2221 762 1747 
Q 762 928 1101 435 
Q 1318 115 1677 115 
Q 2029 115 2230 432 
Q 2432 749 2432 1306 
z
" transform="scale(0.015625)"/>
      <path id="STIXGeneral-Regular-42" d="M 2701 2234 
L 2701 2227 
Q 3181 2150 3482 1875 
Q 3795 1594 3795 1139 
Q 3795 608 3379 304 
Q 2963 0 2266 0 
L 109 0 
L 109 122 
Q 486 134 604 246 
Q 723 358 723 723 
L 723 3520 
Q 723 3891 614 3990 
Q 506 4090 109 4115 
L 109 4237 
L 1901 4237 
Q 2726 4237 3152 3958 
Q 3578 3680 3578 3168 
Q 3578 2733 3315 2502 
Q 3130 2342 2701 2234 
z
M 1376 2342 
L 1965 2342 
Q 2925 2342 2925 3136 
Q 2925 3546 2640 3773 
Q 2355 4000 1792 4000 
L 1530 4000 
Q 1376 4000 1376 3795 
L 1376 2342 
z
M 1376 2086 
L 1376 525 
Q 1376 365 1462 301 
Q 1549 237 1773 237 
Q 2208 237 2413 285 
Q 2618 333 2816 512 
Q 3059 723 3059 1146 
Q 3059 1632 2758 1830 
Q 2688 1882 2617 1917 
Q 2547 1952 2492 1974 
Q 2438 1997 2348 2016 
Q 2259 2035 2211 2044 
Q 2163 2054 2041 2060 
Q 1920 2067 1862 2070 
Q 1805 2074 1635 2080 
Q 1466 2086 1376 2086 
z
" transform="scale(0.015625)"/>
      <path id="STIXGeneral-Regular-45" d="M 3821 1082 
L 3526 0 
L 77 0 
L 77 122 
Q 442 147 538 252 
Q 634 358 634 730 
L 634 3520 
Q 634 3878 534 3987 
Q 435 4096 77 4115 
L 77 4237 
L 3469 4237 
L 3494 3322 
L 3334 3322 
Q 3264 3750 3085 3872 
Q 2906 3994 2349 3994 
L 1510 3994 
Q 1370 3994 1328 3952 
Q 1286 3910 1286 3763 
L 1286 2355 
L 2253 2355 
Q 2656 2355 2787 2470 
Q 2918 2586 2976 2970 
L 3123 2970 
L 3123 1472 
L 2976 1472 
Q 2918 1875 2790 1984 
Q 2662 2093 2253 2093 
L 1286 2093 
L 1286 538 
Q 1286 346 1420 291 
Q 1555 237 1933 237 
L 2163 237 
Q 2848 237 3136 403 
Q 3424 570 3642 1082 
L 3821 1082 
z
" transform="scale(0.015625)"/>
      <path id="STIXGeneral-Regular-54" d="M 3795 3149 
L 3642 3149 
Q 3539 3674 3353 3821 
Q 3168 3968 2656 3968 
L 2278 3968 
L 2278 710 
Q 2278 346 2387 243 
Q 2496 141 2893 122 
L 2893 0 
L 1024 0 
L 1024 122 
Q 1427 147 1526 256 
Q 1626 365 1626 787 
L 1626 3968 
L 1242 3968 
Q 723 3968 540 3817 
Q 358 3667 262 3149 
L 109 3149 
L 154 4237 
L 3750 4237 
L 3795 3149 
z
" transform="scale(0.015625)"/>
      <path id="STIXGeneral-Regular-61" d="M 2829 422 
L 2829 243 
Q 2586 -64 2253 -64 
Q 1888 -64 1843 403 
L 1837 403 
Q 1427 -64 909 -64 
Q 608 -64 422 112 
Q 237 288 237 602 
Q 237 1050 685 1350 
Q 992 1555 1837 1869 
L 1837 2214 
Q 1837 2502 1699 2646 
Q 1562 2790 1338 2790 
Q 1146 2790 1018 2697 
Q 890 2605 890 2477 
Q 890 2419 909 2348 
Q 928 2278 928 2208 
Q 928 2112 841 2029 
Q 755 1946 634 1946 
Q 525 1946 441 2029 
Q 358 2112 358 2240 
Q 358 2547 685 2752 
Q 986 2944 1421 2944 
Q 1939 2944 2176 2656 
Q 2291 2522 2323 2384 
Q 2355 2246 2355 1946 
L 2355 723 
Q 2355 301 2554 301 
Q 2682 301 2829 422 
z
M 1837 813 
L 1837 1715 
Q 1248 1510 1018 1293 
Q 800 1094 800 800 
Q 800 557 921 432 
Q 1043 307 1242 307 
Q 1453 307 1613 410 
Q 1747 506 1792 589 
Q 1837 672 1837 813 
z
" transform="scale(0.015625)"/>
      <path id="STIXGeneral-Regular-2212" d="M 3974 1408 
L 410 1408 
L 410 1830 
L 3974 1830 
L 3974 1408 
z
" transform="scale(0.015625)"/>
      <path id="STIXGeneral-Regular-69" d="M 1152 4045 
Q 1152 3904 1056 3811 
Q 960 3718 819 3718 
Q 685 3718 592 3811 
Q 499 3904 499 4045 
Q 499 4179 595 4275 
Q 691 4371 826 4371 
Q 966 4371 1059 4275 
Q 1152 4179 1152 4045 
z
M 1619 0 
L 102 0 
L 102 96 
Q 435 115 521 211 
Q 608 307 608 666 
L 608 2118 
Q 608 2342 563 2432 
Q 518 2522 397 2522 
Q 243 2522 128 2490 
L 128 2592 
L 1120 2944 
L 1146 2918 
L 1146 672 
Q 1146 314 1226 218 
Q 1306 122 1619 96 
L 1619 0 
z
" transform="scale(0.015625)"/>
      <path id="STIXGeneral-Regular-4c" d="M 3827 1114 
L 3520 0 
L 77 0 
L 77 122 
Q 429 141 531 256 
Q 634 371 634 736 
L 634 3494 
Q 634 3872 541 3981 
Q 448 4090 77 4115 
L 77 4237 
L 1888 4237 
L 1888 4115 
Q 1498 4090 1392 3984 
Q 1286 3878 1286 3507 
L 1286 538 
Q 1286 358 1398 304 
Q 1510 250 1862 250 
L 2310 250 
Q 3085 250 3392 640 
Q 3520 813 3661 1114 
L 3827 1114 
z
" transform="scale(0.015625)"/>
      <path id="STIXGeneral-Regular-53" d="M 3002 2963 
L 2842 2963 
Q 2733 3360 2579 3565 
Q 2189 4064 1651 4064 
Q 1357 4064 1181 3894 
Q 1005 3725 1005 3456 
Q 1005 3328 1069 3206 
Q 1133 3085 1206 2998 
Q 1280 2912 1465 2784 
Q 1651 2656 1766 2589 
Q 1882 2522 2150 2362 
Q 2669 2061 2905 1763 
Q 3142 1466 3142 1107 
Q 3142 576 2771 243 
Q 2400 -90 1837 -90 
Q 1421 -90 1082 58 
Q 915 128 781 128 
Q 704 128 653 70 
Q 602 13 602 -83 
L 461 -83 
L 275 1274 
L 416 1274 
Q 845 141 1734 141 
Q 2074 141 2285 342 
Q 2496 544 2496 858 
Q 2496 1158 2310 1363 
Q 2003 1696 1235 2106 
Q 454 2522 454 3206 
Q 454 3718 768 4022 
Q 1082 4326 1568 4326 
Q 1907 4326 2240 4186 
Q 2413 4109 2522 4109 
Q 2688 4109 2726 4326 
L 2861 4326 
L 3002 2963 
z
" transform="scale(0.015625)"/>
      <path id="STIXGeneral-Regular-4d" d="M 5530 0 
L 3738 0 
L 3738 122 
Q 4115 147 4214 265 
Q 4314 384 4314 787 
L 4314 3661 
L 2682 0 
L 2592 0 
L 979 3514 
L 979 966 
Q 979 448 1088 294 
Q 1197 141 1574 122 
L 1574 0 
L 77 0 
L 77 122 
Q 358 141 480 205 
Q 602 269 650 432 
Q 698 595 698 966 
L 698 3514 
Q 698 3878 589 3984 
Q 480 4090 90 4115 
L 90 4237 
L 1357 4237 
L 2835 1024 
L 4250 4237 
L 5523 4237 
L 5523 4115 
Q 5178 4109 5072 3993 
Q 4966 3878 4966 3520 
L 4966 717 
Q 4966 378 5072 262 
Q 5178 147 5530 122 
L 5530 0 
z
" transform="scale(0.015625)"/>
      <path id="STIXGeneral-Regular-43" d="M 3930 838 
L 4051 723 
Q 3482 -90 2304 -90 
Q 1376 -90 794 480 
Q 179 1082 179 2080 
Q 179 3014 755 3661 
Q 1357 4326 2310 4326 
Q 2720 4326 3072 4230 
Q 3475 4115 3514 4115 
Q 3725 4115 3782 4326 
L 3910 4326 
L 3968 2874 
L 3821 2874 
Q 3718 3334 3488 3584 
Q 3034 4070 2458 4070 
Q 1747 4070 1334 3548 
Q 922 3027 922 2182 
Q 922 1152 1382 653 
Q 1811 192 2522 192 
Q 2944 192 3251 339 
Q 3558 486 3930 838 
z
" transform="scale(0.015625)"/>
      <path id="SimSun-66f2" d="M 4050 2000 
L 4050 200 
L 5075 200 
L 5075 2000 
L 4050 2000 
z
M 1000 4050 
L 1400 3825 
L 2375 3825 
Q 2375 4750 2350 5250 
L 2925 4975 
L 2700 4800 
L 2700 3825 
L 3725 3825 
Q 3725 4850 3700 5250 
L 4300 4950 
L 4050 4800 
L 4050 3825 
L 5025 3825 
L 5250 4075 
L 5650 3750 
L 5425 3575 
Q 5425 325 5450 -250 
L 5075 -425 
L 5075 50 
L 1375 50 
L 1375 -350 
L 1000 -525 
Q 1025 650 1025 1812 
Q 1025 2975 1000 4050 
z
M 1375 3675 
L 1375 2150 
L 2375 2150 
L 2375 3675 
L 1375 3675 
z
M 2700 3675 
L 2700 2150 
L 3725 2150 
L 3725 3675 
L 2700 3675 
z
M 4050 3675 
L 4050 2150 
L 5075 2150 
L 5075 3675 
L 4050 3675 
z
M 1375 2000 
L 1375 200 
L 2375 200 
L 2375 2000 
L 1375 2000 
z
M 2700 2000 
L 2700 200 
L 3725 200 
L 3725 2000 
L 2700 2000 
z
" transform="scale(0.015625)"/>
      <path id="SimSun-7ebf" d="M 3900 3400 
Q 3900 3050 3950 2475 
L 5125 2600 
L 5450 2975 
L 5950 2550 
L 3975 2350 
Q 4050 1575 4225 1125 
Q 4775 1625 5100 2175 
L 5550 1725 
L 5325 1700 
Q 4850 1250 4375 800 
Q 4825 175 5425 -75 
L 5775 1125 
L 5875 1100 
Q 5825 525 5812 150 
Q 5800 -225 5925 -450 
Q 5950 -500 5950 -525 
Q 5950 -625 5687 -587 
Q 5425 -550 4987 -287 
Q 4550 -25 4100 550 
Q 3650 250 3187 50 
Q 2725 -150 2025 -350 
L 2000 -250 
Q 3075 150 3925 850 
Q 3700 1525 3625 2300 
L 2600 2175 
L 2400 2075 
L 2125 2275 
L 3600 2425 
Q 3575 2775 3550 3375 
L 2825 3325 
L 2675 3225 
L 2450 3425 
L 3550 3500 
Q 3525 4375 3500 5250 
L 4075 4975 
L 3875 4800 
Q 3875 4275 3900 3525 
L 4975 3625 
L 5300 4000 
L 5800 3550 
L 3900 3400 
z
M 4275 4825 
L 4300 4900 
Q 5075 4700 5150 4562 
Q 5225 4425 5225 4325 
Q 5225 4200 5175 4075 
Q 5125 3950 5075 3950 
Q 5025 3950 4925 4150 
Q 4750 4425 4275 4825 
z
M 1525 5150 
L 2025 4825 
Q 1825 4750 1600 4325 
Q 1375 3875 775 3050 
L 1800 3150 
Q 2100 3650 2275 4150 
L 2725 3825 
Q 2550 3725 2125 3100 
Q 1700 2475 1025 1600 
Q 1375 1650 2575 1875 
L 2575 1775 
Q 1900 1600 1525 1462 
Q 1150 1325 775 1075 
L 475 1600 
Q 750 1675 1112 2137 
Q 1475 2600 1750 3050 
Q 1475 3000 1175 2912 
Q 875 2825 625 2600 
L 350 3075 
Q 625 3125 987 3787 
Q 1350 4450 1525 5150 
z
M 325 375 
Q 1025 475 1450 550 
Q 1875 625 2825 825 
L 2850 725 
Q 1725 400 1212 212 
Q 700 25 575 -100 
L 325 375 
z
" transform="scale(0.015625)"/>
     </defs>
     <use xlink:href="#SimSun-6c49" transform="translate(0 0.96875)"/>
     <use xlink:href="#SimSun-8bed" transform="translate(100 0.96875)"/>
     <use xlink:href="#STIXGeneral-Regular-52" transform="translate(200 0.96875)"/>
     <use xlink:href="#STIXGeneral-Regular-6f" transform="translate(266.699997 0.96875)"/>
     <use xlink:href="#STIXGeneral-Regular-42" transform="translate(316.699982 0.96875)"/>
     <use xlink:href="#STIXGeneral-Regular-45" transform="translate(383.399979 0.96875)"/>
     <use xlink:href="#STIXGeneral-Regular-52" transform="translate(444.499969 0.96875)"/>
     <use xlink:href="#STIXGeneral-Regular-54" transform="translate(511.199966 0.96875)"/>
     <use xlink:href="#STIXGeneral-Regular-61" transform="translate(572.299957 0.96875)"/>
     <use xlink:href="#STIXGeneral-Regular-2212" transform="translate(632.259949 0.96875)"/>
     <use xlink:href="#STIXGeneral-Regular-42" transform="translate(716.319931 0.96875)"/>
     <use xlink:href="#STIXGeneral-Regular-69" transform="translate(783.019928 0.96875)"/>
     <use xlink:href="#STIXGeneral-Regular-4c" transform="translate(810.819916 0.96875)"/>
     <use xlink:href="#STIXGeneral-Regular-53" transform="translate(871.919907 0.96875)"/>
     <use xlink:href="#STIXGeneral-Regular-54" transform="translate(927.519897 0.96875)"/>
     <use xlink:href="#STIXGeneral-Regular-4d" transform="translate(988.619888 0.96875)"/>
     <use xlink:href="#STIXGeneral-Regular-2212" transform="translate(1093.07988 0.96875)"/>
     <use xlink:href="#STIXGeneral-Regular-43" transform="translate(1177.139862 0.96875)"/>
     <use xlink:href="#STIXGeneral-Regular-52" transform="translate(1243.839859 0.96875)"/>
     <use xlink:href="#STIXGeneral-Regular-46" transform="translate(1310.539856 0.96875)"/>
     <use xlink:href="#SimSun-8bad" transform="translate(1366.139847 0.96875)"/>
     <use xlink:href="#SimSun-7ec3" transform="translate(1466.139847 0.96875)"/>
     <use xlink:href="#SimSun-66f2" transform="translate(1566.139847 0.96875)"/>
     <use xlink:href="#SimSun-7ebf" transform="translate(1666.139847 0.96875)"/>
    </g>
   </g>
   <g id="legend_1">
    <g id="patch_7">
     <path d="M 299.349375 246 
L 380.4 246 
Q 382.8 246 382.8 243.6 
L 382.8 176.9325 
Q 382.8 174.5325 380.4 174.5325 
L 299.349375 174.5325 
Q 296.949375 174.5325 296.949375 176.9325 
L 296.949375 243.6 
Q 296.949375 246 299.349375 246 
z
" style="fill: #ffffff; opacity: 0.8; stroke: #cccccc; stroke-linejoin: miter"/>
    </g>
    <g id="line2d_17">
     <path d="M 301.749375 183.5325 
L 313.749375 183.5325 
L 325.749375 183.5325 
" style="fill: none; stroke: #1f77b4; stroke-width: 1.5; stroke-linecap: square"/>
    </g>
    <g id="text_16">
     <!-- Festival -->
     <g transform="translate(335.349375 187.7325)scale(0.12 -0.12)">
      <defs>
       <path id="TimesNewRomanPSMT-46" d="M 1309 4006 
L 1309 2341 
L 2081 2341 
Q 2347 2341 2470 2458 
Q 2594 2575 2634 2922 
L 2750 2922 
L 2750 1488 
L 2634 1488 
Q 2631 1734 2570 1850 
Q 2509 1966 2401 2023 
Q 2294 2081 2081 2081 
L 1309 2081 
L 1309 750 
Q 1309 428 1350 325 
Q 1381 247 1481 191 
Q 1619 116 1769 116 
L 1922 116 
L 1922 0 
L 103 0 
L 103 116 
L 253 116 
Q 516 116 634 269 
Q 709 369 709 750 
L 709 3488 
Q 709 3809 669 3913 
Q 638 3991 541 4047 
Q 406 4122 253 4122 
L 103 4122 
L 103 4238 
L 3256 4238 
L 3297 3306 
L 3188 3306 
Q 3106 3603 2998 3742 
Q 2891 3881 2733 3943 
Q 2575 4006 2244 4006 
L 1309 4006 
z
" transform="scale(0.015625)"/>
       <path id="TimesNewRomanPSMT-65" d="M 681 1784 
Q 678 1147 991 784 
Q 1303 422 1725 422 
Q 2006 422 2214 576 
Q 2422 731 2563 1106 
L 2659 1044 
Q 2594 616 2278 264 
Q 1963 -88 1488 -88 
Q 972 -88 605 314 
Q 238 716 238 1394 
Q 238 2128 614 2539 
Q 991 2950 1559 2950 
Q 2041 2950 2350 2633 
Q 2659 2316 2659 1784 
L 681 1784 
z
M 681 1966 
L 2006 1966 
Q 1991 2241 1941 2353 
Q 1863 2528 1708 2628 
Q 1553 2728 1384 2728 
Q 1125 2728 920 2526 
Q 716 2325 681 1966 
z
" transform="scale(0.015625)"/>
       <path id="TimesNewRomanPSMT-73" d="M 2050 2947 
L 2050 1972 
L 1947 1972 
Q 1828 2431 1642 2597 
Q 1456 2763 1169 2763 
Q 950 2763 815 2647 
Q 681 2531 681 2391 
Q 681 2216 781 2091 
Q 878 1963 1175 1819 
L 1631 1597 
Q 2266 1288 2266 781 
Q 2266 391 1970 151 
Q 1675 -88 1309 -88 
Q 1047 -88 709 6 
Q 606 38 541 38 
Q 469 38 428 -44 
L 325 -44 
L 325 978 
L 428 978 
Q 516 541 762 319 
Q 1009 97 1316 97 
Q 1531 97 1667 223 
Q 1803 350 1803 528 
Q 1803 744 1651 891 
Q 1500 1038 1047 1263 
Q 594 1488 453 1669 
Q 313 1847 313 2119 
Q 313 2472 555 2709 
Q 797 2947 1181 2947 
Q 1350 2947 1591 2875 
Q 1750 2828 1803 2828 
Q 1853 2828 1881 2850 
Q 1909 2872 1947 2947 
L 2050 2947 
z
" transform="scale(0.015625)"/>
       <path id="TimesNewRomanPSMT-74" d="M 1031 3803 
L 1031 2863 
L 1700 2863 
L 1700 2644 
L 1031 2644 
L 1031 788 
Q 1031 509 1111 412 
Q 1191 316 1316 316 
Q 1419 316 1516 380 
Q 1613 444 1666 569 
L 1788 569 
Q 1678 263 1478 108 
Q 1278 -47 1066 -47 
Q 922 -47 784 33 
Q 647 113 581 261 
Q 516 409 516 719 
L 516 2644 
L 63 2644 
L 63 2747 
Q 234 2816 414 2980 
Q 594 3144 734 3369 
Q 806 3488 934 3803 
L 1031 3803 
z
" transform="scale(0.015625)"/>
       <path id="TimesNewRomanPSMT-69" d="M 928 4444 
Q 1059 4444 1151 4351 
Q 1244 4259 1244 4128 
Q 1244 3997 1151 3903 
Q 1059 3809 928 3809 
Q 797 3809 703 3903 
Q 609 3997 609 4128 
Q 609 4259 701 4351 
Q 794 4444 928 4444 
z
M 1188 2947 
L 1188 647 
Q 1188 378 1227 289 
Q 1266 200 1342 156 
Q 1419 113 1622 113 
L 1622 0 
L 231 0 
L 231 113 
Q 441 113 512 153 
Q 584 194 626 287 
Q 669 381 669 647 
L 669 1750 
Q 669 2216 641 2353 
Q 619 2453 572 2492 
Q 525 2531 444 2531 
Q 356 2531 231 2484 
L 188 2597 
L 1050 2947 
L 1188 2947 
z
" transform="scale(0.015625)"/>
       <path id="TimesNewRomanPSMT-76" d="M 53 2863 
L 1400 2863 
L 1400 2747 
L 1313 2747 
Q 1191 2747 1127 2687 
Q 1063 2628 1063 2528 
Q 1063 2419 1128 2269 
L 1794 688 
L 2463 2328 
Q 2534 2503 2534 2594 
Q 2534 2638 2509 2666 
Q 2475 2713 2422 2730 
Q 2369 2747 2206 2747 
L 2206 2863 
L 3141 2863 
L 3141 2747 
Q 2978 2734 2916 2681 
Q 2806 2588 2719 2369 
L 1703 -88 
L 1575 -88 
L 553 2328 
Q 484 2497 421 2570 
Q 359 2644 263 2694 
Q 209 2722 53 2747 
L 53 2863 
z
" transform="scale(0.015625)"/>
       <path id="TimesNewRomanPSMT-61" d="M 1822 413 
Q 1381 72 1269 19 
Q 1100 -59 909 -59 
Q 613 -59 420 144 
Q 228 347 228 678 
Q 228 888 322 1041 
Q 450 1253 767 1440 
Q 1084 1628 1822 1897 
L 1822 2009 
Q 1822 2438 1686 2597 
Q 1550 2756 1291 2756 
Q 1094 2756 978 2650 
Q 859 2544 859 2406 
L 866 2225 
Q 866 2081 792 2003 
Q 719 1925 600 1925 
Q 484 1925 411 2006 
Q 338 2088 338 2228 
Q 338 2497 613 2722 
Q 888 2947 1384 2947 
Q 1766 2947 2009 2819 
Q 2194 2722 2281 2516 
Q 2338 2381 2338 1966 
L 2338 994 
Q 2338 584 2353 492 
Q 2369 400 2405 369 
Q 2441 338 2488 338 
Q 2538 338 2575 359 
Q 2641 400 2828 588 
L 2828 413 
Q 2478 -56 2159 -56 
Q 2006 -56 1915 50 
Q 1825 156 1822 413 
z
M 1822 616 
L 1822 1706 
Q 1350 1519 1213 1441 
Q 966 1303 859 1153 
Q 753 1003 753 825 
Q 753 600 887 451 
Q 1022 303 1197 303 
Q 1434 303 1822 616 
z
" transform="scale(0.015625)"/>
       <path id="TimesNewRomanPSMT-6c" d="M 1184 4444 
L 1184 647 
Q 1184 378 1223 290 
Q 1263 203 1344 158 
Q 1425 113 1647 113 
L 1647 0 
L 244 0 
L 244 113 
Q 441 113 512 153 
Q 584 194 625 287 
Q 666 381 666 647 
L 666 3247 
Q 666 3731 644 3842 
Q 622 3953 573 3993 
Q 525 4034 450 4034 
Q 369 4034 244 3984 
L 191 4094 
L 1044 4444 
L 1184 4444 
z
" transform="scale(0.015625)"/>
      </defs>
      <use xlink:href="#TimesNewRomanPSMT-46"/>
      <use xlink:href="#TimesNewRomanPSMT-65" x="55.615234"/>
      <use xlink:href="#TimesNewRomanPSMT-73" x="100"/>
      <use xlink:href="#TimesNewRomanPSMT-74" x="138.916016"/>
      <use xlink:href="#TimesNewRomanPSMT-69" x="166.699219"/>
      <use xlink:href="#TimesNewRomanPSMT-76" x="194.482422"/>
      <use xlink:href="#TimesNewRomanPSMT-61" x="244.482422"/>
      <use xlink:href="#TimesNewRomanPSMT-6c" x="288.867188"/>
     </g>
    </g>
    <g id="line2d_18">
     <path d="M 301.749375 200.499375 
L 313.749375 200.499375 
L 325.749375 200.499375 
" style="fill: none; stroke: #ff7f0e; stroke-width: 1.5; stroke-linecap: square"/>
    </g>
    <g id="text_17">
     <!-- Item -->
     <g transform="translate(335.349375 204.699375)scale(0.12 -0.12)">
      <defs>
       <path id="TimesNewRomanPSMT-49" d="M 1975 116 
L 1975 0 
L 159 0 
L 159 116 
L 309 116 
Q 572 116 691 269 
Q 766 369 766 750 
L 766 3488 
Q 766 3809 725 3913 
Q 694 3991 597 4047 
Q 459 4122 309 4122 
L 159 4122 
L 159 4238 
L 1975 4238 
L 1975 4122 
L 1822 4122 
Q 1563 4122 1444 3969 
Q 1366 3869 1366 3488 
L 1366 750 
Q 1366 428 1406 325 
Q 1438 247 1538 191 
Q 1672 116 1822 116 
L 1975 116 
z
" transform="scale(0.015625)"/>
       <path id="TimesNewRomanPSMT-6d" d="M 1050 2338 
Q 1363 2650 1419 2697 
Q 1559 2816 1721 2881 
Q 1884 2947 2044 2947 
Q 2313 2947 2506 2790 
Q 2700 2634 2766 2338 
Q 3088 2713 3309 2830 
Q 3531 2947 3766 2947 
Q 3994 2947 4170 2830 
Q 4347 2713 4450 2447 
Q 4519 2266 4519 1878 
L 4519 647 
Q 4519 378 4559 278 
Q 4591 209 4675 161 
Q 4759 113 4950 113 
L 4950 0 
L 3538 0 
L 3538 113 
L 3597 113 
Q 3781 113 3884 184 
Q 3956 234 3988 344 
Q 4000 397 4000 647 
L 4000 1878 
Q 4000 2228 3916 2372 
Q 3794 2572 3525 2572 
Q 3359 2572 3192 2489 
Q 3025 2406 2788 2181 
L 2781 2147 
L 2788 2013 
L 2788 647 
Q 2788 353 2820 281 
Q 2853 209 2943 161 
Q 3034 113 3253 113 
L 3253 0 
L 1806 0 
L 1806 113 
Q 2044 113 2133 169 
Q 2222 225 2256 338 
Q 2272 391 2272 647 
L 2272 1878 
Q 2272 2228 2169 2381 
Q 2031 2581 1784 2581 
Q 1616 2581 1450 2491 
Q 1191 2353 1050 2181 
L 1050 647 
Q 1050 366 1089 281 
Q 1128 197 1204 155 
Q 1281 113 1516 113 
L 1516 0 
L 100 0 
L 100 113 
Q 297 113 375 155 
Q 453 197 493 289 
Q 534 381 534 647 
L 534 1741 
Q 534 2213 506 2350 
Q 484 2453 437 2492 
Q 391 2531 309 2531 
Q 222 2531 100 2484 
L 53 2597 
L 916 2947 
L 1050 2947 
L 1050 2338 
z
" transform="scale(0.015625)"/>
      </defs>
      <use xlink:href="#TimesNewRomanPSMT-49"/>
      <use xlink:href="#TimesNewRomanPSMT-74" x="33.300781"/>
      <use xlink:href="#TimesNewRomanPSMT-65" x="61.083984"/>
      <use xlink:href="#TimesNewRomanPSMT-6d" x="105.46875"/>
     </g>
    </g>
    <g id="line2d_19">
     <path d="M 301.749375 217.46625 
L 313.749375 217.46625 
L 325.749375 217.46625 
" style="fill: none; stroke: #2ca02c; stroke-width: 1.5; stroke-linecap: square"/>
    </g>
    <g id="text_18">
     <!-- Event -->
     <g transform="translate(335.349375 221.66625)scale(0.12 -0.12)">
      <defs>
       <path id="TimesNewRomanPSMT-45" d="M 1338 4006 
L 1338 2331 
L 2269 2331 
Q 2631 2331 2753 2441 
Q 2916 2584 2934 2947 
L 3050 2947 
L 3050 1472 
L 2934 1472 
Q 2891 1781 2847 1869 
Q 2791 1978 2662 2040 
Q 2534 2103 2269 2103 
L 1338 2103 
L 1338 706 
Q 1338 425 1363 364 
Q 1388 303 1450 267 
Q 1513 231 1688 231 
L 2406 231 
Q 2766 231 2928 281 
Q 3091 331 3241 478 
Q 3434 672 3638 1063 
L 3763 1063 
L 3397 0 
L 131 0 
L 131 116 
L 281 116 
Q 431 116 566 188 
Q 666 238 702 338 
Q 738 438 738 747 
L 738 3500 
Q 738 3903 656 3997 
Q 544 4122 281 4122 
L 131 4122 
L 131 4238 
L 3397 4238 
L 3444 3309 
L 3322 3309 
Q 3256 3644 3176 3769 
Q 3097 3894 2941 3959 
Q 2816 4006 2500 4006 
L 1338 4006 
z
" transform="scale(0.015625)"/>
       <path id="TimesNewRomanPSMT-6e" d="M 1034 2341 
Q 1538 2947 1994 2947 
Q 2228 2947 2397 2830 
Q 2566 2713 2666 2444 
Q 2734 2256 2734 1869 
L 2734 647 
Q 2734 375 2778 278 
Q 2813 200 2889 156 
Q 2966 113 3172 113 
L 3172 0 
L 1756 0 
L 1756 113 
L 1816 113 
Q 2016 113 2095 173 
Q 2175 234 2206 353 
Q 2219 400 2219 647 
L 2219 1819 
Q 2219 2209 2117 2386 
Q 2016 2563 1775 2563 
Q 1403 2563 1034 2156 
L 1034 647 
Q 1034 356 1069 288 
Q 1113 197 1189 155 
Q 1266 113 1500 113 
L 1500 0 
L 84 0 
L 84 113 
L 147 113 
Q 366 113 442 223 
Q 519 334 519 647 
L 519 1709 
Q 519 2225 495 2337 
Q 472 2450 423 2490 
Q 375 2531 294 2531 
Q 206 2531 84 2484 
L 38 2597 
L 900 2947 
L 1034 2947 
L 1034 2341 
z
" transform="scale(0.015625)"/>
      </defs>
      <use xlink:href="#TimesNewRomanPSMT-45"/>
      <use xlink:href="#TimesNewRomanPSMT-76" x="61.083984"/>
      <use xlink:href="#TimesNewRomanPSMT-65" x="111.083984"/>
      <use xlink:href="#TimesNewRomanPSMT-6e" x="155.46875"/>
      <use xlink:href="#TimesNewRomanPSMT-74" x="205.46875"/>
     </g>
    </g>
    <g id="line2d_20">
     <path d="M 301.749375 234.433125 
L 313.749375 234.433125 
L 325.749375 234.433125 
" style="fill: none; stroke: #d62728; stroke-width: 1.5; stroke-linecap: square"/>
    </g>
    <g id="text_19">
     <!-- Location -->
     <g transform="translate(335.349375 238.633125)scale(0.12 -0.12)">
      <defs>
       <path id="TimesNewRomanPSMT-4c" d="M 3669 1172 
L 3772 1150 
L 3409 0 
L 128 0 
L 128 116 
L 288 116 
Q 556 116 672 291 
Q 738 391 738 753 
L 738 3488 
Q 738 3884 650 3984 
Q 528 4122 288 4122 
L 128 4122 
L 128 4238 
L 2047 4238 
L 2047 4122 
Q 1709 4125 1573 4059 
Q 1438 3994 1388 3894 
Q 1338 3794 1338 3416 
L 1338 753 
Q 1338 494 1388 397 
Q 1425 331 1503 300 
Q 1581 269 1991 269 
L 2300 269 
Q 2788 269 2984 341 
Q 3181 413 3343 595 
Q 3506 778 3669 1172 
z
" transform="scale(0.015625)"/>
       <path id="TimesNewRomanPSMT-6f" d="M 1600 2947 
Q 2250 2947 2644 2453 
Q 2978 2031 2978 1484 
Q 2978 1100 2793 706 
Q 2609 313 2286 112 
Q 1963 -88 1566 -88 
Q 919 -88 538 428 
Q 216 863 216 1403 
Q 216 1797 411 2186 
Q 606 2575 925 2761 
Q 1244 2947 1600 2947 
z
M 1503 2744 
Q 1338 2744 1170 2645 
Q 1003 2547 900 2300 
Q 797 2053 797 1666 
Q 797 1041 1045 587 
Q 1294 134 1700 134 
Q 2003 134 2200 384 
Q 2397 634 2397 1244 
Q 2397 2006 2069 2444 
Q 1847 2744 1503 2744 
z
" transform="scale(0.015625)"/>
       <path id="TimesNewRomanPSMT-63" d="M 2631 1088 
Q 2516 522 2178 217 
Q 1841 -88 1431 -88 
Q 944 -88 581 321 
Q 219 731 219 1428 
Q 219 2103 620 2525 
Q 1022 2947 1584 2947 
Q 2006 2947 2278 2723 
Q 2550 2500 2550 2259 
Q 2550 2141 2473 2067 
Q 2397 1994 2259 1994 
Q 2075 1994 1981 2113 
Q 1928 2178 1911 2362 
Q 1894 2547 1784 2644 
Q 1675 2738 1481 2738 
Q 1169 2738 978 2506 
Q 725 2200 725 1697 
Q 725 1184 976 792 
Q 1228 400 1656 400 
Q 1963 400 2206 609 
Q 2378 753 2541 1131 
L 2631 1088 
z
" transform="scale(0.015625)"/>
      </defs>
      <use xlink:href="#TimesNewRomanPSMT-4c"/>
      <use xlink:href="#TimesNewRomanPSMT-6f" x="61.083984"/>
      <use xlink:href="#TimesNewRomanPSMT-63" x="111.083984"/>
      <use xlink:href="#TimesNewRomanPSMT-61" x="155.46875"/>
      <use xlink:href="#TimesNewRomanPSMT-74" x="199.853516"/>
      <use xlink:href="#TimesNewRomanPSMT-69" x="227.636719"/>
      <use xlink:href="#TimesNewRomanPSMT-6f" x="255.419922"/>
      <use xlink:href="#TimesNewRomanPSMT-6e" x="305.419922"/>
     </g>
    </g>
   </g>
  </g>
 </g>
 <defs>
  <clipPath id="p644676f96e">
   <rect x="54" y="34.56" width="334.8" height="217.44"/>
  </clipPath>
 </defs>
</svg>
