<svg 
 xmlns="http://www.w3.org/2000/svg"
 xmlns:xlink="http://www.w3.org/1999/xlink"
 width="12px" height="12px">
<path fill-rule="evenodd"  fill="rgb(255, 255, 255)"
 d="M1.749,0.308 L11.247,10.189 C11.648,10.606 11.646,11.279 11.243,11.694 C10.840,12.108 10.189,12.106 9.788,11.689 L0.290,1.808 C-0.110,1.392 -0.108,0.718 0.294,0.304 C0.697,-0.111 1.348,-0.109 1.749,0.308 Z"/>
<path fill-rule="evenodd"  fill="rgb(255, 255, 255)"
 d="M10.230,0.308 L0.732,10.189 C0.331,10.606 0.333,11.279 0.736,11.694 C1.139,12.108 1.790,12.106 2.191,11.689 L11.689,1.808 C12.089,1.392 12.087,0.718 11.685,0.304 C11.282,-0.111 10.631,-0.109 10.230,0.308 Z"/>
</svg>
