<svg 
 xmlns="http://www.w3.org/2000/svg"
 xmlns:xlink="http://www.w3.org/1999/xlink"
 width="22px" height="14px">
<path fill-rule="evenodd"  fill="rgb(29, 1, 92)"
 d="M1.178,-0.000 L20.822,-0.000 C21.472,-0.000 22.000,0.527 22.000,1.178 L22.000,1.353 C22.000,2.004 21.472,2.531 20.822,2.531 L1.178,2.531 C0.527,2.531 -0.000,2.004 -0.000,1.353 L-0.000,1.178 C-0.000,0.527 0.527,-0.000 1.178,-0.000 Z"/>
<path fill-rule="evenodd"  fill="rgb(29, 1, 92)"
 d="M1.165,5.750 L17.148,5.750 C17.791,5.750 18.312,6.271 18.312,6.914 L18.312,7.085 C18.312,7.728 17.791,8.250 17.148,8.250 L1.165,8.250 C0.521,8.250 -0.000,7.728 -0.000,7.085 L-0.000,6.914 C-0.000,6.271 0.521,5.750 1.165,5.750 Z"/>
<path fill-rule="evenodd"  fill="rgb(29, 1, 92)"
 d="M1.178,11.468 L12.291,11.468 C12.941,11.468 13.469,11.996 13.469,12.646 L13.469,12.822 C13.469,13.472 12.941,14.000 12.291,14.000 L1.178,14.000 C0.527,14.000 -0.000,13.472 -0.000,12.822 L-0.000,12.646 C-0.000,11.996 0.527,11.468 1.178,11.468 Z"/>
</svg>
